Coordinates
version=1
nRows=26
nColumns=22
inDegrees=yes

Units are S.I. units (second, meters, Newtons, ...)
If the header above contains a line with 'inDegrees', this indicates whether rotational values are in degrees (yes) or radians (no).

endheader
time	pelvis_tilt	pelvis_list	pelvis_rotation	pelvis_tx	pelvis_ty	pelvis_tz	hip_flexion_r	hip_adduction_r	hip_rotation_r	knee_angle_r	ankle_angle_r	subtalar_angle_r	hip_flexion_l	hip_adduction_l	hip_rotation_l	knee_angle_l	ankle_angle_l	subtalar_angle_l	lumbar_extension	lumbar_bending	lumbar_rotation
      1.59000000	     -6.96883026	     -2.00459520	    -37.03781588	     -0.89198844	      0.88807199	     -0.42105294	     28.35053518	     -2.33983606	     -4.10697663	    -47.14342662	     11.99896386	      6.78428902	     -1.50932681	     -2.78101946	     -2.59676268	     -3.45475800	     16.30417165	     -1.55317225	     -2.05527121	      0.99373096	     10.15943784
      1.60000000	     -6.98129381	     -2.22839540	    -36.80553984	     -0.89074127	      0.88836793	     -0.42075733	     28.80847692	     -2.26450769	     -4.32219818	    -47.47689711	     11.69464803	      6.88194475	     -1.71910639	     -2.97826370	     -2.44450420	     -3.40579365	     16.37914077	     -1.32590062	     -2.27541574	      1.19921666	      9.90045074
      1.61000000	     -6.97405403	     -2.43219493	    -36.61059917	     -0.88951777	      0.88863561	     -0.42034063	     29.24134469	     -2.17848025	     -4.44828728	    -47.69687398	     11.34695875	      7.05287313	     -1.93582812	     -3.15003396	     -2.31972661	     -3.37045665	     16.48600631	     -1.10065494	     -2.50284654	      1.36952506	      9.72326445
      1.62000000	     -6.96353680	     -2.59377390	    -36.43366654	     -0.88830522	      0.88884598	     -0.41983757	     29.67523709	     -2.09748668	     -4.50286733	    -47.80395851	     10.95187247	      7.15016115	     -2.12992487	     -3.28493212	     -2.20089556	     -3.34074023	     16.54635983	     -1.03030315	     -2.70754079	      1.49978821	      9.56429042
      1.63000000	     -6.98167973	     -2.78034767	    -36.23775596	     -0.88699709	      0.88901439	     -0.41924504	     30.05020035	     -1.97636359	     -4.56834994	    -47.75029198	     10.57954462	      7.39226901	     -2.32302731	     -3.46614129	     -2.08267723	     -3.30502989	     16.64019145	     -0.91534546	     -2.89321382	      1.67943100	      9.36104998
      1.64000000	     -6.98044505	     -2.93496027	    -36.06823437	     -0.88568473	      0.88912971	     -0.41856363	     30.40855669	     -1.86499557	     -4.56937022	    -47.59867080	     10.17392141	      7.67052866	     -2.51763035	     -3.60802822	     -1.97575350	     -3.27572226	     16.72853899	     -0.82384111	     -3.07802203	      1.81838035	      9.21738317
      1.65000000	     -6.97717309	     -3.06593332	    -35.90645620	     -0.88432287	      0.88918105	     -0.41780037	     30.74401243	     -1.75802679	     -4.53755421	    -47.33384909	      9.75402713	      7.92956150	     -2.70552187	     -3.72852546	     -1.87243497	     -3.24850660	     16.80929194	     -0.76912467	     -3.24832069	      1.93704158	      9.08826405
      1.66000000	     -6.97062948	     -3.19578753	    -35.74705834	     -0.88290277	      0.88918452	     -0.41695185	     31.03830959	     -1.64306581	     -4.48904981	    -46.96017140	      9.32891066	      8.24354873	     -2.89990074	     -3.84904416	     -1.76187779	     -3.22826477	     16.89495135	     -0.73057173	     -3.42002784	      2.05713623	      8.96348495
      1.67000000	     -6.94100967	     -3.30294547	    -35.58839627	     -0.88140139	      0.88914352	     -0.41603252	     31.28823373	     -1.55441189	     -4.41771547	    -46.48289692	      8.89887892	      8.62006200	     -3.10427554	     -3.93456720	     -1.64420138	     -3.21456065	     16.99334941	     -0.71688588	     -3.59573643	      2.14520175	      8.86256758
      1.68000000	     -6.94022877	     -3.39970942	    -35.42878342	     -0.87981663	      0.88902398	     -0.41502173	     31.52131540	     -1.44987798	     -4.35079186	    -45.89085622	      8.46176692	      8.84999277	     -3.28310958	     -4.02968264	     -1.53527342	     -3.20042757	     17.07144278	     -0.74369205	     -3.73150995	      2.25121612	      8.74366559
      1.69000000	     -6.91509015	     -3.49738134	    -35.26451808	     -0.87813339	      0.88888683	     -0.41395335	     31.68674762	     -1.36178501	     -4.28571020	    -45.19503553	      8.03598239	      9.15447639	     -3.48226091	     -4.11019812	     -1.40752544	     -3.20459335	     17.17443472	     -0.80917488	     -3.89009888	      2.35092923	      8.63969217
      1.70000000	     -6.88551088	     -3.57450636	    -35.10708367	     -0.87638165	      0.88869138	     -0.41279752	     31.82341949	     -1.29045583	     -4.22398100	    -44.40886982	      7.62041633	      9.44051299	     -3.67407607	     -4.16997596	     -1.27931504	     -3.22246703	     17.28460211	     -0.91288295	     -4.03864970	      2.43282544	      8.53937798
      1.71000000	     -6.85287927	     -3.63899900	    -34.95075851	     -0.87455883	      0.88844646	     -0.41157951	     31.92463962	     -1.23324556	     -4.17584768	    -43.53090848	      7.22218216	      9.71357185	     -3.85794929	     -4.21619027	     -1.14944590	     -3.25855493	     17.40715716	     -1.05785286	     -4.18218840	      2.50839111	      8.45094622
      1.72000000	     -6.79890110	     -3.68128997	    -34.80480950	     -0.87268766	      0.88816267	     -0.41030582	     31.98874569	     -1.20756231	     -4.13581255	    -42.57477537	      6.85243638	     10.03196393	     -4.04407775	     -4.22834908	     -1.00595211	     -3.31627734	     17.53753699	     -1.27860841	     -4.33696096	      2.55367107	      8.39456849
      1.73000000	     -6.78124569	     -3.70384912	    -34.67333742	     -0.87077840	      0.88778687	     -0.40895099	     32.05635436	     -1.17021012	     -4.11263759	    -41.52681991	      6.49049762	     10.22627132	     -4.18137120	     -4.24656767	     -0.89114414	     -3.39706949	     17.68538376	     -1.46684996	     -4.44625000	      2.61250725	      8.32645678
      1.74000000	     -6.75004551	     -3.69744628	    -34.56088226	     -0.86884438	      0.88736118	     -0.40753542	     32.10425501	     -1.15967499	     -4.09701132	    -40.41232655	      6.14791755	     10.41421672	     -4.31365701	     -4.23015403	     -0.78106700	     -3.49217923	     17.84215224	     -1.68241059	     -4.55681202	      2.63790340	      8.28976047
      1.75000000	     -6.72277303	     -3.65133001	    -34.47348175	     -0.86689309	      0.88685710	     -0.40604661	     32.15460844	     -1.16684205	     -4.07569297	    -39.23297995	      5.82009991	     10.54715398	     -4.41982011	     -4.18079994	     -0.69010061	     -3.60230965	     18.00962935	     -1.86893454	     -4.64421803	      2.63350225	      8.27572926
      1.76000000	     -6.68486901	     -3.55569585	    -34.41081148	     -0.86493052	      0.88627738	     -0.40449060	     32.21459890	     -1.21191564	     -4.05746762	    -38.01447866	      5.46182728	     10.62103470	     -4.51045674	     -4.08109707	     -0.62409223	     -3.71711787	     18.18062791	     -1.99922109	     -4.71739724	      2.57702206	      8.28866427
      1.77000000	     -6.64889966	     -3.46126204	    -34.36314640	     -0.86291250	      0.88566106	     -0.40283350	     32.22703124	     -1.23911863	     -4.03712399	    -36.71245561	      5.17802320	     10.72404046	     -4.61809262	     -3.98771064	     -0.55634493	     -3.81936325	     18.36957724	     -2.18384336	     -4.79210848	      2.52598118	      8.31509083
      1.78000000	     -6.60001381	     -3.29623773	    -34.33955542	     -0.86087225	      0.88494489	     -0.40110839	     32.27393149	     -1.32533313	     -4.02497014	    -35.40376154	      4.82421973	     10.76136658	     -4.70455991	     -3.82273516	     -0.51821216	     -3.91602320	     18.55001028	     -2.26802177	     -4.83933735	      2.40404025	      8.35659530
      1.79000000	     -6.56033599	     -3.14594832	    -34.32832999	     -0.85877814	      0.88419955	     -0.39927712	     32.26810087	     -1.37708823	     -4.02074107	    -34.01226049	      4.51716974	     10.83460891	     -4.80717612	     -3.68092503	     -0.48592433	     -4.00267889	     18.75269354	     -2.38502243	     -4.88968528	      2.30435308	      8.41103498
      1.80000000	     -6.51124407	     -2.93928793	    -34.33233991	     -0.85665465	      0.88336439	     -0.39737127	     32.28818194	     -1.47479429	     -4.03391075	    -32.61967073	      4.15724486	     10.88248217	     -4.89636665	     -3.48401007	     -0.46904587	     -4.07759613	     18.94498659	     -2.44001186	     -4.91641997	      2.14809151	      8.46495268
      1.81000000	     -6.47468511	     -2.73363111	    -34.34792629	     -0.85447136	      0.88248254	     -0.39536632	     32.27865075	     -1.54770004	     -4.05262130	    -31.16921038	      3.82158635	     10.96166577	     -4.98775651	     -3.29729580	     -0.46345593	     -4.14667143	     19.15171547	     -2.49222712	     -4.93287386	      2.00689682	      8.52580237
      1.82000000	     -6.44493551	     -2.53624716	    -34.36701375	     -0.85222686	      0.88156867	     -0.39323083	     32.23049963	     -1.59325615	     -4.07732528	    -29.67006232	      3.53374691	     11.12178777	     -5.09436292	     -3.12825877	     -0.46514347	     -4.20233384	     19.36869831	     -2.54718595	     -4.94759450	      1.87604741	      8.58587246
      1.83000000	     -6.42238480	     -2.28944331	    -34.38580919	     -0.84991373	      0.88056537	     -0.39102167	     32.21089196	     -1.66522905	     -4.09458307	    -28.17065413	      3.22220333	     11.22482716	     -5.17155455	     -2.91962718	     -0.46230095	     -4.25620218	     19.57262132	     -2.56701088	     -4.92277309	      1.71060192	      8.62850411
      1.84000000	     -6.41324819	     -2.07871904	    -34.39678253	     -0.84746424	      0.87955326	     -0.38867715	     32.12267918	     -1.68433225	     -4.09769632	    -26.60728413	      3.01973411	     11.44823609	     -5.27162708	     -2.75614251	     -0.46064802	     -4.31066008	     19.80297535	     -2.59058678	     -4.89920239	      1.59564174	      8.65596959
